<svg id="Capa_1" data-name="Capa 1" xmlns="http://www.w3.org/2000/svg" xmlns:xlink="http://www.w3.org/1999/xlink" viewBox="0 0 502.19 488.79"><defs><style>.cls-1{fill:#acb8cc;}.cls-2{fill:#dfe6ef;}.cls-3,.cls-6{opacity:0.31;isolation:isolate;}.cls-3{fill:url(#Degradado_sin_nombre_3);}.cls-4{fill:#fff;}.cls-5{fill:#9bcfc2;}.cls-6{fill:url(#Degradado_sin_nombre_3-2);}</style><linearGradient id="Degradado_sin_nombre_3" x1="304.54" y1="402.2" x2="369.57" y2="402.2" gradientUnits="userSpaceOnUse"><stop offset="0" stop-color="#9aa5c3"/><stop offset="1" stop-color="#f2f5fa"/></linearGradient><linearGradient id="Degradado_sin_nombre_3-2" x1="267.75" y1="263.18" x2="369.54" y2="263.18" xlink:href="#Degradado_sin_nombre_3"/></defs><title>Brainbow</title><path class="cls-1" d="M424,289.22c6.2,11.75,19,21.16,34.28,25.19a64.22,64.22,0,0,0,16.44,2.14,66.92,66.92,0,0,0,33.12-9,30.88,30.88,0,0,1,1.2,22.58c-3.5,10.78-14.19,22.55-29.4,22.91-14.41.32-17.74-2.88-27.66-12.42-1-1-2-2-3.18-3-13.91-13.19-38.08-14.68-53.88-3.33a5.17,5.17,0,0,0,5.51,8.75c.17-.11.33-.23.49-.35,10.48-7.53,29.34-8.35,40.73,2.44,1.1,1,2.13,2,3.12,3,10.23,9.81,15.94,15.31,33.08,15.31h2c1,0,1.9-.11,2.84-.2,8,14.22,7.05,33.45-2.46,44.42-8.82,10.18-18.29,15.79-28.84,17.08a46.73,46.73,0,0,0-.91-19.55c-4.06-15.62-15.49-29-27.17-31.72a5.17,5.17,0,1,0-2.38,10.07h0c6.78,1.6,16.18,11.33,19.53,24.25,2,7.65,3.22,22.4-10.84,35.24A37.11,37.11,0,0,1,390,449.87c-10.4-4.33-17.66-12.46-20.4-22.49V360.67c14.85,6.31,18.35,17,22.67,30,4,12.07,8.51,25.75,23.47,36a5.16,5.16,0,0,0,5.84-8.52c-12.07-8.28-15.67-19.17-19.48-30.7-4.67-14.09-9.91-30-32.5-37.83V268c8.17,1.26,17.29-1.84,26.85-5.11C418.7,255.24,444,246.59,472,282.19a5.17,5.17,0,0,0,8.13-6.4c-32.57-41.35-64-30.59-87-22.72-9.53,3.27-17.79,6.1-23.5,4.32v-107a2,2,0,0,0,.08-.22c6.21-20.14,22.7-26.37,36.29-23.61,11,2.24,23,11.29,22.76,29.49-9.62,2.38-18.81,7.6-27.46,15.64a5.17,5.17,0,0,0,6.5,8,5.45,5.45,0,0,0,.5-.46c11.7-10.91,23.89-15.53,37.17-14.11,14.69,1.56,27.3,9.44,34.61,21.64a45.48,45.48,0,0,1,3.8,38.79c-1.39,0-2.75.12-4.09.19-7.58.41-13.57.73-21.07-4.42-6-4.12-12.29-12.27-12.81-21.18a5.17,5.17,0,1,0-10.33.6c.64,10.91,7.42,22.34,17.29,29.12,10.4,7.13,19.47,6.64,27.48,6.21,9.6-.52,17.9-1,30.22,10.2a29.9,29.9,0,0,1,9.73,25.23c-.87,10.38-6.52,20.1-14.75,25.36-13.77,8.8-29.63,11.48-44.66,7.51-12.32-3.26-23-10.93-27.77-20a5.17,5.17,0,1,0-9.15,4.83Z" transform="translate(-116.93 -49.62)"/><path class="cls-2" d="M369.58,203v14.49H275.4a14.26,14.26,0,1,1,0-14.49Z" transform="translate(-116.93 -49.62)"/><path class="cls-3" d="M350.69,395.41a23.56,23.56,0,1,0-.24,14.34.76.76,0,0,0,0,.15h19.13V395.41Zm-12.07,10.53a11.29,11.29,0,1,1,.6-3.62A11.17,11.17,0,0,1,338.62,405.94Z" transform="translate(-116.93 -49.62)"/><path class="cls-1" d="M349.79,156.59h0a23.78,23.78,0,1,0-1.12,14.49c0-.09.06-.19.1-.28l-.06.28h20.9V156.59Zm-25,16.89A11.55,11.55,0,1,1,338,160.31c0,.1,0,.21,0,.31v2.9c0,.1,0,.2,0,.31A11.54,11.54,0,0,1,324.82,173.48Z" transform="translate(-116.93 -49.62)"/><path class="cls-1" d="M369.58,308.94v14.49H261.81a17.22,17.22,0,1,1,0-14.49Z" transform="translate(-116.93 -49.62)"/><rect class="cls-4" x="252.64" y="207.77" width="0.01" height="10.6"/><rect class="cls-4" x="252.64" y="299.98" width="0.01" height="11.07"/><rect class="cls-5" x="252.64" y="299.98" width="0.01" height="11.07"/><path class="cls-2" d="M295.21,347.6a14.68,14.68,0,1,0,0,14.49h74.37V347.6Zm-12.76,13.94h0a6.73,6.73,0,1,1,6.73-6.73A6.73,6.73,0,0,1,282.43,361.54Z" transform="translate(-116.93 -49.62)"/><path class="cls-6" d="M314.21,255.94a23.78,23.78,0,1,0,0,14.49h55.33V255.94ZM292.1,274.69a11.56,11.56,0,1,1,11.55-11.57h0A11.57,11.57,0,0,1,292.1,274.69Z" transform="translate(-116.93 -49.62)"/><path class="cls-2" d="M329.35,49.62C330,57.11,330.58,64,331.17,71c-73.59,9.68-126.43,47.51-159.52,114.34,6,1.26,11.13,2.34,16.29,3.45,5,1.08,9.95,2.18,15.83,3.47-19.9,22.16-43.53,40.38-63.55,62.67-9.23-28.25-14-52.41-23.29-81,8.67,1.77,16.54,3.34,24.39,5,8.41,1.79,8.22,1.74,12.12-6.08Q206.2,67.06,323.21,50C325,49.72,326.81,49.76,329.35,49.62Z" transform="translate(-116.93 -49.62)"/><path class="cls-2" d="M248.73,503.15l11.78-17.93c63.82,37.92,128.74,40.88,196.07,8.83-3.9-4.68-7.29-8.72-10.66-12.79s-6.48-7.86-10.3-12.51c29.34-5.11,69.67-1.16,99.19-6.3-10.22,27.91-31.94,46.18-42.27,74.39-5.72-6.76-10.93-12.85-16.07-19-5.5-6.6-5.38-6.44-13.28-2.71q-106.9,50.51-209.41-8.45C252.22,505.76,250.81,504.61,248.73,503.15Z" transform="translate(-116.93 -49.62)"/><path class="cls-1" d="M498.32,107.23c-3.43,10.91-6.54,20.81-9.87,31.37-20.21-21.85-37.78-56.52-58.11-78.5,29.1-6.61,52.94-4.23,84.37-6.27-2.86,9.37-5.29,18.12-8.26,26.68-1.39,4-.88,5.86,3,8.2q104.12,62.34,109.65,183.7a34.55,34.55,0,0,1-.38,4.31l-21.31.07C594.77,202.8,562,146.57,498.32,107.23Z" transform="translate(-116.93 -49.62)"/></svg>